<?xml version="1.0" encoding="UTF-8" standalone="no"?>
<!-- Created with Inkscape (http://www.inkscape.org/) -->

<svg
   width="147.99104mm"
   height="147.85458mm"
   viewBox="0 0 147.99104 147.8546"
   version="1.1"
   id="svg1"
   inkscape:export-filename="editIcon.svg"
   inkscape:export-xdpi="96"
   inkscape:export-ydpi="96"
   inkscape:version="1.3 (0e150ed6c4, 2023-07-21)"
   sodipodi:docname="editIcon.svg"
   xmlns:inkscape="http://www.inkscape.org/namespaces/inkscape"
   xmlns:sodipodi="http://sodipodi.sourceforge.net/DTD/sodipodi-0.dtd"
   xmlns="http://www.w3.org/2000/svg"
   xmlns:svg="http://www.w3.org/2000/svg">
  <sodipodi:namedview
     id="namedview1"
     pagecolor="#505050"
     bordercolor="#eeeeee"
     borderopacity="1"
     inkscape:showpageshadow="0"
     inkscape:pageopacity="0"
     inkscape:pagecheckerboard="0"
     inkscape:deskcolor="#d1d1d1"
     inkscape:document-units="mm"
     inkscape:zoom="0.88715961"
     inkscape:cx="364.0833"
     inkscape:cy="356.19295"
     inkscape:window-width="1918"
     inkscape:window-height="1174"
     inkscape:window-x="0"
     inkscape:window-y="24"
     inkscape:window-maximized="1"
     inkscape:current-layer="layer1" />
  <defs
     id="defs1" />
  <g
     inkscape:label="Layer 1"
     inkscape:groupmode="layer"
     id="layer1"
     transform="translate(-15.491501,-37.770034)">
    <path
       style="font-variation-settings:normal;opacity:1;vector-effect:none;fill:none;fill-opacity:1;stroke:#fff8d8;stroke-width:9.23865;stroke-linecap:round;stroke-linejoin:miter;stroke-miterlimit:4;stroke-dasharray:none;stroke-dashoffset:0;stroke-opacity:1;-inkscape-stroke:none"
       d="m 21.644163,85.126481 c 7.13367,60.673069 11.610822,53.015699 20.769368,76.990719 9.158547,23.97502 12.706844,15.97849 42.504789,16.58144 29.19549,0.59076 28.05687,1.56307 43.8052,-2.56257 20.30849,-5.32028 26.15678,-51.51556 27.82873,-62.44426 1.67195,-10.92869 -0.89171,-34.934115 -0.89171,-34.934115 0,0 12.29816,-2.600255 -38.34346,2.788705 -50.641631,5.388962 -95.672917,3.580081 -95.672917,3.580081 z"
       id="path8"
       sodipodi:nodetypes="czssscsc" />
    <path
       style="font-variation-settings:normal;opacity:1;vector-effect:none;fill:none;fill-opacity:1;stroke:#fff8d8;stroke-width:9.20608;stroke-linecap:round;stroke-linejoin:miter;stroke-miterlimit:4;stroke-dasharray:none;stroke-dashoffset:0;stroke-opacity:1;-inkscape-stroke:none"
       d="m 21.218271,73.731617 c 3.28107,-7.590583 -0.999656,-10.101569 36.431152,-10.477085 37.430809,-0.375515 76.194437,-13.969442 89.337797,-4.093194 13.14337,9.876245 8.87437,18.218297 8.87437,18.218297 L 23.504034,85.491313 c 0,0 -5.566833,-4.169113 -2.285763,-11.759696 z"
       id="path9"
       sodipodi:nodetypes="zssccz" />
    <path
       style="font-variation-settings:normal;opacity:1;vector-effect:none;fill:none;fill-opacity:1;stroke:#fff8d8;stroke-width:9.23865;stroke-linecap:round;stroke-linejoin:miter;stroke-miterlimit:4;stroke-dasharray:none;stroke-dashoffset:0;stroke-opacity:1;-inkscape-stroke:none"
       d="m 70.3909,58.633839 c -1.188936,-13.453591 2.192117,-14.810261 6.762127,-14.923316 4.570008,-0.113055 15.567753,-0.942128 13.375633,3.693146 -2.192119,4.635273 -0.92887,9.948868 -0.92887,9.948868"
       id="path10" />
    <path
       style="font-variation-settings:normal;opacity:1;vector-effect:none;fill:none;fill-opacity:1;stroke:#fff8d8;stroke-width:9.23865;stroke-linecap:round;stroke-linejoin:miter;stroke-miterlimit:4;stroke-dasharray:none;stroke-dashoffset:0;stroke-opacity:1;-inkscape-stroke:none"
       d="m 60.656421,100.95424 c 9.957414,64.21545 14.230174,69.11451 14.230174,69.11451"
       id="path11" />
    <path
       style="font-variation-settings:normal;opacity:1;vector-effect:none;fill:none;fill-opacity:1;stroke:#fff8d8;stroke-width:9.23865;stroke-linecap:round;stroke-linejoin:miter;stroke-miterlimit:4;stroke-dasharray:none;stroke-dashoffset:0;stroke-opacity:1;-inkscape-stroke:none"
       d="m 97.66233,107.51144 c -3.306761,53.28678 -4.64432,54.86955 -4.64432,54.86955"
       id="path12" />
    <path
       style="font-variation-settings:normal;opacity:1;vector-effect:none;fill:none;fill-opacity:1;stroke:#fff8d8;stroke-width:9.23865;stroke-linecap:round;stroke-linejoin:miter;stroke-miterlimit:4;stroke-dasharray:none;stroke-dashoffset:0;stroke-opacity:1;-inkscape-stroke:none"
       d="m 128.42628,109.69719 c -11.51791,44.24234 -13.8958,49.02834 -13.8958,49.02834"
       id="path13" />
  </g>
</svg>
