<?xml version="1.0" encoding="UTF-8" standalone="no"?>
<!-- Created with Inkscape (http://www.inkscape.org/) -->

<svg
   width="147.99104mm"
   height="147.85457mm"
   viewBox="0 0 147.99104 147.85458"
   version="1.1"
   id="svg1"
   inkscape:export-filename="editIcon.svg"
   inkscape:export-xdpi="96"
   inkscape:export-ydpi="96"
   inkscape:version="1.3 (0e150ed6c4, 2023-07-21)"
   sodipodi:docname="editIcon.svg"
   xmlns:inkscape="http://www.inkscape.org/namespaces/inkscape"
   xmlns:sodipodi="http://sodipodi.sourceforge.net/DTD/sodipodi-0.dtd"
   xmlns="http://www.w3.org/2000/svg"
   xmlns:svg="http://www.w3.org/2000/svg">
  <sodipodi:namedview
     id="namedview1"
     pagecolor="#505050"
     bordercolor="#eeeeee"
     borderopacity="1"
     inkscape:showpageshadow="0"
     inkscape:pageopacity="0"
     inkscape:pagecheckerboard="0"
     inkscape:deskcolor="#d1d1d1"
     inkscape:document-units="mm"
     inkscape:zoom="0.88715961"
     inkscape:cx="364.0833"
     inkscape:cy="356.19295"
     inkscape:window-width="1918"
     inkscape:window-height="1174"
     inkscape:window-x="0"
     inkscape:window-y="24"
     inkscape:window-maximized="1"
     inkscape:current-layer="layer1" />
  <defs
     id="defs1" />
  <g
     inkscape:label="Layer 1"
     inkscape:groupmode="layer"
     id="layer1"
     transform="translate(-15.491501,-37.770034)">
    <path
       style="fill:none;stroke:#fff8d8;stroke-width:9.30034;stroke-linecap:round;stroke-dasharray:none;stroke-opacity:1"
       d="M 119.9197,42.626703 C 44.824306,70.234468 20.178366,110.0929 20.178366,110.0929 l 1.929237,69.74132 87.346017,-19.86357 c 0,0 53.72911,-74.116572 49.05075,-91.530032 C 153.826,51.027159 119.9197,42.626703 119.9197,42.626703 Z"
       id="path1" />
    <path
       style="fill:none;stroke:#fff8d8;stroke-width:9.30034;stroke-linecap:round;stroke-dasharray:none;stroke-opacity:1"
       d="m 20.613636,110.90528 c 32.989874,0.26252 6.077105,19.33859 23.922511,23.27629 17.845403,3.9377 31.398248,-7.61293 34.002727,6.91288 2.604467,14.5258 22.760526,10.35501 26.816346,10.32556 6.02882,-0.0437 4.29254,7.39415 4.29254,7.39415"
       id="path2"
       sodipodi:nodetypes="csssc" />
    <path
       style="fill:none;stroke:#fff8d8;stroke-width:9.30034;stroke-linecap:round;stroke-dasharray:none;stroke-opacity:1"
       d="M 49.214513,104.86746 C 121.07845,58.008621 123.24883,60.59001 123.24883,60.59001"
       id="path3" />
    <path
       style="fill:none;stroke:#fff8d8;stroke-width:9.30034;stroke-linecap:round;stroke-dasharray:none;stroke-opacity:1"
       d="M 81.239808,123.41847 C 128.9883,71.003085 130.38699,67.634154 130.38699,67.634154"
       id="path4" />
    <path
       style="fill:none;stroke:#fff8d8;stroke-width:9.30034;stroke-linecap:round;stroke-dasharray:none;stroke-opacity:1"
       d="m 105.64459,141.26945 c 33.1828,-48.433918 37.62004,-67.028689 37.62004,-67.028689"
       id="path5" />
    <path
       style="fill:none;stroke:#fff8d8;stroke-width:9.30034;stroke-linecap:round;stroke-dasharray:none;stroke-opacity:1"
       d="m 27.800033,166.73335 c -1.217335,2.6076 -1.911012,5.32525 -2.459757,8.09419 -0.121124,0.61119 -0.225076,1.22508 -0.337618,1.83762 -0.01608,0.0875 -0.105504,0.33442 -0.04825,0.26249 0.881528,-1.10724 1.525061,-2.25428 2.556249,-3.28144 0.375027,-0.37355 2.097048,-1.61717 2.45976,-2.27511 0.249207,-0.45204 -0.794253,0.71061 -1.15754,1.09381 -0.976479,1.03001 -3.525123,3.71431 -3.762005,5.07528 -0.02311,0.13283 0.30605,-0.0199 0.434083,-0.0875 1.039953,-0.55031 3.364153,-1.91581 4.581927,-2.71264 0.474622,-0.31057 0.935196,-0.63847 1.398691,-0.96256 1.003744,-0.7019 1.264796,-0.94297 1.302245,-0.87503 0.438334,0.79523 -1.25355,2.7667 -1.59162,3.23767 -0.156198,0.2176 -0.816786,0.61252 -0.530549,0.61252 0.430032,0 5.292357,-4.71479 5.353627,-4.76902 0.692847,-0.61319 2.529915,-2.56536 2.170388,-1.75008 -1.159518,2.62934 -9.905831,3.469 -11.189555,7.3504 -0.216506,0.65462 1.09715,-0.96976 1.446934,-1.57508 0.946343,-1.63769 2.219145,-3.53597 1.88099,-5.51281 -0.160706,-0.93947 -0.760054,-1.358 -1.88099,-0.96255 -1.514418,0.53424 -2.336972,2.54447 -2.749158,3.80646 -0.120925,0.37023 -0.283497,1.52179 -0.24115,1.13756 0.131178,-1.19032 0.109201,-4.76932 -0.09646,-3.58771 -0.207122,1.19003 -0.482302,2.38295 -0.482302,3.58771 0,0.25844 0.170392,-0.49346 0.24115,-0.74378 0.153294,-0.54236 1.688752,-4.48095 0.723455,-5.29404 -1.233355,-1.03891 -1.647422,6.11723 -1.591622,6.60659 0.03821,0.33492 0.337619,1.29926 0.337619,0.96257 0,-0.68412 -0.411599,-5.81908 -0.530548,-5.81908 -0.889185,0 -1.287901,3.51928 -1.350445,3.93771 -0.05418,0.36246 -0.194241,1.44868 -0.09646,1.09382 0.245029,-0.88924 0.280534,-1.8926 0.385838,-2.80014 0.01523,-0.13135 0.06882,-0.52453 0.04824,-0.39379 -0.264612,1.68025 -0.131085,3.35041 0.04825,5.03154"
       id="path6" />
  </g>
</svg>
